# xmcd
#
# Track frame offsets: 
#        150
#        19733
#        35617
#        52361
#        66980
#        81936
#        98313
#        114013
#        132091
#        144701
#        159739
#
# Disc length: 2392 seconds
#
# Revision: 0
# Processed by: cddbd v1.5.2PL0 Copyright (c) Steve Scherf et al.
# Submitted via: ExactAudioCopy v1.0b3
#
DISCID=9209560b
DTITLE=Serpent With Feet - Soil
DYEAR=2018
DGENRE=Soul
TTITLE0=Whisper
TTITLE1=Messy
TTITLE2=Wrong Tree
TTITLE3=Fragrant
TTITLE4=Mourning Song
TTITLE5=Cherubim
TTITLE6=Seedless
TTITLE7=Invoice
TTITLE8=Waft
TTITLE9=Slow Syrup
TTITLE10=Bless Ur Heart
EXTD=
EXTT0=
EXTT1=
EXTT2=
EXTT3=
EXTT4=
EXTT5=
EXTT6=
EXTT7=
EXTT8=
EXTT9=
EXTT10=
PLAYORDER=
